#N canvas 75 148 1216 251 12;
#N canvas 1 77 1327 669 CORE 0;
#X obj 22 103 cnv 15 170 210 empty empty hAcKAI_LPureData8 10 12 1
15 -260097 -1 0;
#X obj 192 103 cnv 15 610 210 empty empty empty 20 12 0 14 -99865 -66577
0;
#X obj 800 103 cnv 15 425 210 empty empty empty 20 12 0 14 -260097
-66577 0;
#X floatatom 272 232 5 0 127 0 note - -, f 5;
#X floatatom 272 252 5 0 127 0 pr_ch - -, f 5;
#X floatatom 272 272 5 0 127 0 ctl_ch - -, f 5;
#X obj 272 292 tgl 15 0 empty empty momen/toggle -75 7 0 10 -262144
-1 -1 1 1;
#X obj 131 328 t b f;
#X obj 131 352 s \$0_ba;
#X obj 141 378 t b f;
#X obj 141 402 s \$0_ba;
#X obj 201 328 t b f;
#X obj 201 352 s \$0_ba;
#X obj 211 378 t b f;
#X obj 211 402 s \$0_ba;
#X floatatom 422 232 5 0 127 0 note - -, f 5;
#X floatatom 422 252 5 0 127 0 pr_ch - -, f 5;
#X floatatom 422 272 5 0 127 0 ctl_ch - -, f 5;
#X obj 422 292 tgl 15 0 empty empty momen/toggle -75 7 0 10 -262144
-1 -1 0 1;
#X obj 281 328 t b f;
#X obj 281 352 s \$0_ba;
#X obj 291 378 t b f;
#X obj 291 402 s \$0_ba;
#X obj 351 328 t b f;
#X obj 351 352 s \$0_ba;
#X obj 361 378 t b f;
#X obj 361 402 s \$0_ba;
#X floatatom 572 232 5 0 127 0 note - -, f 5;
#X floatatom 572 252 5 0 127 0 pr_ch - -, f 5;
#X floatatom 572 272 5 0 127 0 ctl_ch - -, f 5;
#X obj 572 292 tgl 15 0 empty empty momen/toggle -75 7 0 10 -262144
-1 -1 0 1;
#X obj 431 328 t b f;
#X obj 431 352 s \$0_ba;
#X obj 441 378 t b f;
#X obj 441 402 s \$0_ba;
#X obj 501 328 t b f;
#X obj 501 352 s \$0_ba;
#X obj 511 378 t b f;
#X obj 511 402 s \$0_ba;
#X floatatom 722 232 5 0 127 0 note - -, f 5;
#X floatatom 722 252 5 0 127 0 pr_ch - -, f 5;
#X floatatom 722 272 5 0 127 0 ctl_ch - -, f 5;
#X obj 722 292 tgl 15 0 empty empty momen/toggle -75 7 0 10 -262144
-1 -1 1 1;
#X obj 581 328 t b f;
#X obj 581 352 s \$0_ba;
#X obj 591 378 t b f;
#X obj 591 402 s \$0_ba;
#X obj 651 328 t b f;
#X obj 651 352 s \$0_ba;
#X obj 661 378 t b f;
#X obj 661 402 s \$0_ba;
#X floatatom 272 122 5 0 127 0 note - -, f 5;
#X floatatom 272 142 5 0 127 0 pr_ch - -, f 5;
#X floatatom 272 162 5 0 127 0 ctl_ch - -, f 5;
#X obj 272 182 tgl 15 0 empty empty momen/toggle -75 7 0 10 -262144
-1 -1 1 1;
#X obj 131 438 t b f;
#X obj 131 462 s \$0_ba;
#X obj 141 488 t b f;
#X obj 141 512 s \$0_ba;
#X obj 201 438 t b f;
#X obj 201 462 s \$0_ba;
#X obj 211 488 t b f;
#X obj 211 512 s \$0_ba;
#X floatatom 422 122 5 0 127 0 note - -, f 5;
#X floatatom 422 142 5 0 127 0 pr_ch - -, f 5;
#X floatatom 422 162 5 0 127 0 ctl_ch - -, f 5;
#X obj 422 182 tgl 15 0 empty empty momen/toggle -75 7 0 10 -262144
-1 -1 247 1;
#X obj 281 438 t b f;
#X obj 281 462 s \$0_ba;
#X obj 291 488 t b f;
#X obj 291 512 s \$0_ba;
#X obj 351 438 t b f;
#X obj 351 462 s \$0_ba;
#X obj 361 488 t b f;
#X obj 361 512 s \$0_ba;
#X floatatom 572 122 5 0 127 0 note - -, f 5;
#X floatatom 572 142 5 0 127 0 pr_ch - -, f 5;
#X floatatom 572 162 5 0 127 0 ctl_ch - -, f 5;
#X obj 572 182 tgl 15 0 empty empty momen/toggle -75 7 0 10 -262144
-1 -1 0 1;
#X obj 431 438 t b f;
#X obj 431 462 s \$0_ba;
#X obj 441 488 t b f;
#X obj 441 512 s \$0_ba;
#X obj 501 438 t b f;
#X obj 501 462 s \$0_ba;
#X obj 511 488 t b f;
#X obj 511 512 s \$0_ba;
#X floatatom 722 122 5 0 127 0 note - -, f 5;
#X floatatom 722 142 5 0 127 0 pr_ch - -, f 5;
#X floatatom 722 162 5 0 127 0 ctl_ch - -, f 5;
#X obj 722 182 tgl 15 0 empty empty momen/toggle -75 7 0 10 -262144
-1 -1 0 1;
#X obj 581 438 t b f;
#X obj 581 462 s \$0_ba;
#X obj 591 488 t b f;
#X obj 591 512 s \$0_ba;
#X obj 651 438 t b f;
#X obj 651 462 s \$0_ba;
#X obj 661 488 t b f;
#X obj 661 512 s \$0_ba;
#X obj 123 585 r \$0_ba;
#X floatatom 853 124 5 0 127 0 ctl_ch - -, f 5;
#X floatatom 853 144 5 0 127 0 LOW - -, f 5;
#X floatatom 853 164 5 0 127 0 HIGH - -, f 5;
#X obj 781 338 t b f;
#X obj 781 362 s \$0_ba;
#X obj 801 438 t b f;
#X obj 801 462 s \$0_ba;
#X obj 791 388 t b f;
#X obj 791 412 s \$0_ba;
#X floatatom 963 124 5 0 127 0 ctl_ch - -, f 5;
#X floatatom 963 144 5 0 127 0 LOW - -, f 5;
#X floatatom 963 164 5 0 127 0 HIGH - -, f 5;
#X obj 891 338 t b f;
#X obj 891 362 s \$0_ba;
#X obj 911 438 t b f;
#X obj 911 462 s \$0_ba;
#X obj 901 388 t b f;
#X obj 901 412 s \$0_ba;
#X floatatom 1073 124 5 0 127 0 ctl_ch - -, f 5;
#X floatatom 1073 144 5 0 127 0 LOW - -, f 5;
#X floatatom 1073 164 5 0 127 0 HIGH - -, f 5;
#X obj 1001 338 t b f;
#X obj 1001 362 s \$0_ba;
#X obj 1021 438 t b f;
#X obj 1021 462 s \$0_ba;
#X obj 1011 388 t b f;
#X obj 1011 412 s \$0_ba;
#X floatatom 1183 124 5 0 127 0 ctl_ch - -, f 5;
#X floatatom 1183 144 5 0 127 0 LOW - -, f 5;
#X floatatom 1183 164 5 0 127 0 HIGH - -, f 5;
#X obj 1111 338 t b f;
#X obj 1111 362 s \$0_ba;
#X obj 1131 438 t b f;
#X obj 1131 462 s \$0_ba;
#X obj 1121 388 t b f;
#X obj 1121 412 s \$0_ba;
#X floatatom 853 214 5 0 127 0 ctl_ch - -, f 5;
#X floatatom 853 234 5 0 127 0 LOW - -, f 5;
#X floatatom 853 254 5 0 127 0 HIGH - -, f 5;
#X obj 811 518 t b f;
#X obj 811 542 s \$0_ba;
#X obj 831 618 t b f;
#X obj 831 642 s \$0_ba;
#X obj 821 568 t b f;
#X obj 821 592 s \$0_ba;
#X floatatom 963 214 5 0 127 0 ctl_ch - -, f 5;
#X floatatom 963 234 5 0 127 0 LOW - -, f 5;
#X floatatom 963 254 5 0 127 0 HIGH - -, f 5;
#X obj 921 518 t b f;
#X obj 921 542 s \$0_ba;
#X obj 941 618 t b f;
#X obj 941 642 s \$0_ba;
#X obj 931 568 t b f;
#X obj 931 592 s \$0_ba;
#X floatatom 1073 214 5 0 127 0 ctl_ch - -, f 5;
#X floatatom 1073 234 5 0 127 0 LOW - -, f 5;
#X floatatom 1073 254 5 0 127 0 HIGH - -, f 5;
#X obj 1031 518 t b f;
#X obj 1031 542 s \$0_ba;
#X obj 1051 618 t b f;
#X obj 1051 642 s \$0_ba;
#X obj 1041 568 t b f;
#X obj 1041 592 s \$0_ba;
#X floatatom 1183 214 5 0 127 0 ctl_ch - -, f 5;
#X floatatom 1183 234 5 0 127 0 LOW - -, f 5;
#X floatatom 1183 254 5 0 127 0 HIGH - -, f 5;
#X obj 1141 518 t b f;
#X obj 1141 542 s \$0_ba;
#X obj 1161 618 t b f;
#X obj 1161 642 s \$0_ba;
#X obj 1151 568 t b f;
#X obj 1151 592 s \$0_ba;
#X floatatom 135 135 5 0 3 0 preset_nr_(1-4) - -, f 5;
#X floatatom 135 158 5 0 15 0 midi_ch_(1-16) - -, f 5;
#X obj 4 378 t b f;
#X obj 4 402 s \$0_ba;
#X obj 14 428 t b f;
#X obj 14 452 s \$0_ba;
#X obj 123 734 cyclone/zl iter 1;
#X obj 98 688 list;
#X obj 41 278 bng 25 250 50 0 empty empty upload 0 -8 0 10 -4034 -1
-1;
#X obj 123 786 print;
#X obj 123 758 spigot;
#X obj 180 758 tgl 15 0 empty empty print_MIDI_msg 17 7 0 10 -262144
-1 -1 0 1;
#X obj 52 825 midiout;
#X msg 84 792 1;
#X obj 52 769 t f b;
#X obj 123 711 list append 247;
#X msg 319 803 240 71 127 117 99 0 1 \$1 247;
#X obj 319 726 cyclone/zl slice 7;
#X obj 319 750 cyclone/zl slice 1;
#X obj 319 774 pipe 50;
#X obj 123 665 list prepend 240 71;
#X obj 123 620 pack 127 117 97 0 58 0 0 0 0 0 0 0 0 0 0 0 0 0 0 0 0
0 0 0 0 0 0 0 0 0 0 0 0 0 0 0 0 0 0 0 0 0 0 0 0 0 0 0 0 0 0 0 0 0 0
0 0 0 0 0 0 0 0, f 94;
#X obj 9 3 r \$0_p0;
#X obj 49 33 r \$0_p1;
#X obj 119 3 r \$0_p2;
#X obj 129 23 r \$0_p3;
#X obj 119 43 r \$0_p4;
#X obj 129 63 r \$0_p5;
#X obj 189 3 r \$0_p6;
#X obj 199 23 r \$0_p7;
#X obj 189 43 r \$0_p8;
#X obj 199 63 r \$0_p9;
#X obj 279 3 r \$0_p10;
#X obj 289 23 r \$0_p11;
#X obj 279 43 r \$0_p12;
#X obj 289 63 r \$0_p13;
#X obj 349 3 r \$0_p14;
#X obj 359 23 r \$0_p15;
#X obj 349 43 r \$0_p16;
#X obj 359 63 r \$0_p17;
#X obj 429 3 r \$0_p18;
#X obj 439 23 r \$0_p19;
#X obj 429 43 r \$0_p20;
#X obj 439 63 r \$0_p21;
#X obj 499 3 r \$0_p22;
#X obj 509 23 r \$0_p23;
#X obj 499 43 r \$0_p24;
#X obj 509 63 r \$0_p25;
#X obj 589 3 r \$0_p26;
#X obj 599 23 r \$0_p27;
#X obj 589 43 r \$0_p28;
#X obj 599 63 r \$0_p29;
#X obj 659 3 r \$0_p30;
#X obj 669 23 r \$0_p31;
#X obj 659 43 r \$0_p32;
#X obj 669 63 r \$0_p33;
#X obj 729 3 r \$0_p34;
#X obj 739 23 r \$0_p35;
#X obj 729 43 r \$0_p36;
#X obj 799 3 r \$0_p37;
#X obj 809 23 r \$0_p38;
#X obj 799 43 r \$0_p39;
#X obj 869 3 r \$0_p40;
#X obj 879 23 r \$0_p41;
#X obj 869 43 r \$0_p42;
#X obj 939 3 r \$0_p43;
#X obj 949 23 r \$0_p44;
#X obj 939 43 r \$0_p45;
#X obj 1009 3 r \$0_p46;
#X obj 1019 23 r \$0_p47;
#X obj 1009 43 r \$0_p48;
#X obj 1079 3 r \$0_p49;
#X obj 1089 23 r \$0_p50;
#X obj 1079 43 r \$0_p51;
#X obj 1149 3 r \$0_p52;
#X obj 1159 23 r \$0_p53;
#X obj 1149 43 r \$0_p54;
#X obj 1219 3 r \$0_p55;
#X obj 1229 23 r \$0_p56;
#X obj 1219 43 r \$0_p57;
#N canvas 1 77 1043 493 STORAGE 0;
#N canvas 0 50 450 250 (subpatch) 0;
#X array \$0_mem 66 float 3;
#A 0 240 71 127 117 99 0 58 4 3 36 0 110 1 37 0 111 1 38 0 112 1 39
0 113 1 40 0 114 1 41 0 115 1 42 0 116 1 43 0 117 1 102 0 127 103 0
127 104 0 127 105 0 127 106 0 127 107 0 127 108 0 127 109 0 127 247
;
#X coords 0 127 66 0 300 180 1 0 0;
#X restore 581 87 graph;
#X obj 87 134 r \$0_params;
#X obj 87 268 cyclone/zl iter 1;
#X obj 87 198 t l b;
#X msg 158 302 0;
#X obj 87 292 t f b;
#X obj 140 325 f 0;
#X obj 180 325 + 1;
#X floatatom 140 349 5 0 0 0 - - -, f 5;
#X obj 87 399 tabwrite \$0_mem;
#X floatatom 87 316 5 0 0 0 - - -, f 5;
#X obj 87 222 cyclone/zl slice 5;
#X obj 87 168 list;
#X obj 311 36 bng 15 250 50 0 empty empty empty 0 -6 0 8 -262144 -1
-1;
#X obj 311 55 savepanel;
#X msg 311 78 write \$1;
#X obj 311 102 s \$0_mem;
#X obj 413 35 bng 15 250 50 0 empty empty empty 0 -6 0 8 -262144 -1
-1;
#X obj 413 54 openpanel;
#X obj 23 91 r \$0_save;
#X obj 23 115 t b b;
#X obj 127 101 bng 15 250 50 0 empty empty empty 17 7 0 10 -262144
-1 -1;
#X obj 515 34 r \$0_load;
#X msg 413 114 read \$1;
#X obj 413 138 s \$0_mem;
#X obj 413 78 t b a;
#X msg 321 194 61;
#X obj 321 218 t f b;
#X obj 321 242 until;
#X obj 361 266 + 1;
#X obj 321 266 f 0;
#X floatatom 321 290 5 0 0 0 - - -, f 5;
#X msg 380 231 0;
#X obj 321 311 t f f;
#X obj 321 355 tabread \$0_mem;
#X obj 321 419 s;
#X obj 457 300 makefilename \$0_p%d;
#X obj 321 379 int;
#X obj 60 154 bng 15 250 50 0 empty empty empty 17 7 0 10 -262144 -1
-1;
#X msg 602 405 read preset.txt;
#X obj 602 429 s \$0_mem;
#X obj 602 341 loadbang;
#X obj 602 365 t b b;
#X text 757 441 version 0.1 - mario buoninfante;
#X obj 212 153 r \$0_AkaiValues;
#X connect 1 0 12 1;
#X connect 2 0 5 0;
#X connect 3 0 11 0;
#X connect 3 1 4 0;
#X connect 4 0 6 1;
#X connect 5 0 10 0;
#X connect 5 1 6 0;
#X connect 6 0 7 0;
#X connect 6 0 8 0;
#X connect 7 0 6 1;
#X connect 8 0 9 1;
#X connect 10 0 9 0;
#X connect 11 1 2 0;
#X connect 12 0 3 0;
#X connect 13 0 14 0;
#X connect 14 0 15 0;
#X connect 15 0 16 0;
#X connect 17 0 18 0;
#X connect 18 0 25 0;
#X connect 19 0 20 0;
#X connect 20 0 13 0;
#X connect 20 1 12 0;
#X connect 21 0 20 0;
#X connect 22 0 17 0;
#X connect 23 0 24 0;
#X connect 25 0 26 0;
#X connect 25 1 23 0;
#X connect 26 0 27 0;
#X connect 27 0 28 0;
#X connect 27 1 32 0;
#X connect 28 0 30 0;
#X connect 29 0 30 1;
#X connect 30 0 29 0;
#X connect 30 0 31 0;
#X connect 31 0 33 0;
#X connect 32 0 30 1;
#X connect 33 0 34 0;
#X connect 33 1 36 0;
#X connect 34 0 37 0;
#X connect 36 0 35 1;
#X connect 37 0 35 0;
#X connect 38 0 12 0;
#X connect 39 0 40 0;
#X connect 41 0 42 0;
#X connect 42 0 26 0;
#X connect 42 1 39 0;
#X connect 44 0 5 0;
#X restore 1115 716 pd STORAGE;
#X obj 17 729 s \$0_params;
#X obj 111 278 bng 25 250 50 0 \$0_save empty save 0 -8 0 10 -262144
-1 -1;
#X obj 141 278 bng 25 250 50 0 \$0_load empty load 0 -8 0 10 -262144
-1 -1;
#X obj 85 329 - 1;
#X obj 49 67 + 1;
#X text 562 786 version 0.1 - mario buoninfante \; mario.buoninfante@gmail.com
;
#X msg 873 765 240 71 127 117 99 0 1 \$1 247;
#N canvas 221 172 856 513 GETPRESET 0;
#X obj 32 64 spigot;
#X obj 161 161 + 1;
#X obj 117 161 f -9;
#X floatatom 117 185 5 0 0 0 - - -, f 5;
#X obj 117 217 makefilename \$0_p%d;
#X obj 74 250 s;
#X obj 104 47 tgl 15 0 empty empty empty 17 7 0 10 -262144 -1 -1 0
1;
#X obj 32 98 t f f b;
#X floatatom 52 132 5 0 0 0 - - -, f 5;
#X obj 32 189 sel 247;
#X msg 32 213 0;
#X obj 32 40 sysexin;
#X obj 159 23 r \$0_getPreset;
#X msg 159 47 1;
#X obj 206 57 b;
#X msg 142 96 -7;
#X obj 283 173 s \$0_AkaiValues;
#X obj 604 102 expr if($f1 > 1 && $f1 < 18 \, 1 \, 0);
#X obj 572 70 t f f;
#X obj 572 144 spigot;
#X obj 604 126 tgl 15 0 empty empty empty 17 7 0 10 -262144 -1 -1 0
1;
#X obj 442 10 t f f;
#X obj 442 94 spigot;
#X obj 474 66 tgl 15 0 empty empty empty 17 7 0 10 -262144 -1 -1 0
1;
#X floatatom 442 118 5 0 0 0 - - -, f 5;
#X obj 474 42 expr if($f1 < 2 \, 1 \, 0);
#X obj 442 180 t f f;
#X obj 442 264 spigot;
#X obj 474 236 tgl 15 0 empty empty empty 17 7 0 10 -262144 -1 -1 0
1;
#X obj 572 168 + 16;
#X floatatom 572 192 5 0 0 0 - - -, f 5;
#X obj 474 212 expr if($f1 > 17 && $f1 < 26 \, 1 \, 0);
#X obj 442 288 - 16;
#X floatatom 442 312 5 0 0 0 - - -, f 5;
#X obj 572 240 t f f;
#X obj 572 324 spigot;
#X obj 604 296 tgl 15 0 empty empty empty 17 7 0 10 -262144 -1 -1 0
1;
#X floatatom 572 352 5 0 0 0 - - -, f 5;
#X obj 604 272 expr if($f1 > 25 \, 1 \, 0);
#X connect 0 0 7 0;
#X connect 1 0 2 1;
#X connect 2 0 1 0;
#X connect 2 0 3 0;
#X connect 3 0 18 0;
#X connect 3 0 21 0;
#X connect 3 0 26 0;
#X connect 4 0 5 1;
#X connect 6 0 0 1;
#X connect 7 0 9 0;
#X connect 7 1 8 0;
#X connect 7 2 2 0;
#X connect 8 0 5 0;
#X connect 8 0 16 0;
#X connect 9 0 10 0;
#X connect 10 0 6 0;
#X connect 11 0 0 0;
#X connect 12 0 13 0;
#X connect 12 0 14 0;
#X connect 13 0 6 0;
#X connect 14 0 15 0;
#X connect 15 0 2 1;
#X connect 17 0 20 0;
#X connect 18 0 19 0;
#X connect 18 1 17 0;
#X connect 19 0 29 0;
#X connect 20 0 19 1;
#X connect 21 0 22 0;
#X connect 21 1 25 0;
#X connect 22 0 24 0;
#X connect 23 0 22 1;
#X connect 24 0 4 0;
#X connect 25 0 23 0;
#X connect 26 0 27 0;
#X connect 26 1 31 0;
#X connect 27 0 32 0;
#X connect 28 0 27 1;
#X connect 29 0 30 0;
#X connect 30 0 4 0;
#X connect 31 0 28 0;
#X connect 32 0 33 0;
#X connect 33 0 4 0;
#X connect 34 0 35 0;
#X connect 34 1 38 0;
#X connect 35 0 37 0;
#X connect 36 0 35 1;
#X connect 37 0 4 0;
#X connect 38 0 36 0;
#X restore 1019 716 pd GETPRESET;
#X obj 974 797 s \$0_getPreset;
#X floatatom 873 716 5 0 0 0 - - -, f 5;
#X obj 873 737 t f b;
#X obj 34 195 vradio 15 1 0 4 gGetPreset empty GET_PRESET 0 -8 0 10
-262144 -1 -1 0;
#X text 52 193 1;
#X text 52 209 2;
#X text 52 223 3;
#X text 52 240 4;
#X obj 838 679 r gGetPreset;
#X obj 838 703 + 1;
#X connect 3 0 7 0;
#X connect 4 0 9 0;
#X connect 5 0 11 0;
#X connect 6 0 13 0;
#X connect 7 0 8 0;
#X connect 7 1 193 7;
#X connect 9 0 10 0;
#X connect 9 1 193 8;
#X connect 11 0 12 0;
#X connect 11 1 193 9;
#X connect 13 0 14 0;
#X connect 13 1 193 10;
#X connect 15 0 19 0;
#X connect 16 0 21 0;
#X connect 17 0 23 0;
#X connect 18 0 25 0;
#X connect 19 0 20 0;
#X connect 19 1 193 11;
#X connect 21 0 22 0;
#X connect 21 1 193 12;
#X connect 23 0 24 0;
#X connect 23 1 193 13;
#X connect 25 0 26 0;
#X connect 25 1 193 14;
#X connect 27 0 31 0;
#X connect 28 0 33 0;
#X connect 29 0 35 0;
#X connect 30 0 37 0;
#X connect 31 0 32 0;
#X connect 31 1 193 15;
#X connect 33 0 34 0;
#X connect 33 1 193 16;
#X connect 35 0 36 0;
#X connect 35 1 193 17;
#X connect 37 0 38 0;
#X connect 37 1 193 18;
#X connect 39 0 43 0;
#X connect 40 0 45 0;
#X connect 41 0 47 0;
#X connect 42 0 49 0;
#X connect 43 0 44 0;
#X connect 43 1 193 19;
#X connect 45 0 46 0;
#X connect 45 1 193 20;
#X connect 47 0 48 0;
#X connect 47 1 193 21;
#X connect 49 0 50 0;
#X connect 49 1 193 22;
#X connect 51 0 55 0;
#X connect 52 0 57 0;
#X connect 53 0 59 0;
#X connect 54 0 61 0;
#X connect 55 0 56 0;
#X connect 55 1 193 23;
#X connect 57 0 58 0;
#X connect 57 1 193 24;
#X connect 59 0 60 0;
#X connect 59 1 193 25;
#X connect 61 0 62 0;
#X connect 61 1 193 26;
#X connect 63 0 67 0;
#X connect 64 0 69 0;
#X connect 65 0 71 0;
#X connect 66 0 73 0;
#X connect 67 0 68 0;
#X connect 67 1 193 27;
#X connect 69 0 70 0;
#X connect 69 1 193 28;
#X connect 71 0 72 0;
#X connect 71 1 193 29;
#X connect 73 0 74 0;
#X connect 73 1 193 30;
#X connect 75 0 79 0;
#X connect 76 0 81 0;
#X connect 77 0 83 0;
#X connect 78 0 85 0;
#X connect 79 0 80 0;
#X connect 79 1 193 31;
#X connect 81 0 82 0;
#X connect 81 1 193 32;
#X connect 83 0 84 0;
#X connect 83 1 193 33;
#X connect 85 0 86 0;
#X connect 85 1 193 34;
#X connect 87 0 91 0;
#X connect 88 0 93 0;
#X connect 89 0 95 0;
#X connect 90 0 97 0;
#X connect 91 0 92 0;
#X connect 91 1 193 35;
#X connect 93 0 94 0;
#X connect 93 1 193 36;
#X connect 95 0 96 0;
#X connect 95 1 193 37;
#X connect 97 0 98 0;
#X connect 97 1 193 38;
#X connect 99 0 193 0;
#X connect 100 0 103 0;
#X connect 101 0 107 0;
#X connect 102 0 105 0;
#X connect 103 0 104 0;
#X connect 103 1 193 39;
#X connect 105 0 106 0;
#X connect 105 1 193 41;
#X connect 107 0 108 0;
#X connect 107 1 193 40;
#X connect 109 0 112 0;
#X connect 110 0 116 0;
#X connect 111 0 114 0;
#X connect 112 0 113 0;
#X connect 112 1 193 42;
#X connect 114 0 115 0;
#X connect 114 1 193 44;
#X connect 116 0 117 0;
#X connect 116 1 193 43;
#X connect 118 0 121 0;
#X connect 119 0 125 0;
#X connect 120 0 123 0;
#X connect 121 0 122 0;
#X connect 121 1 193 45;
#X connect 123 0 124 0;
#X connect 123 1 193 47;
#X connect 125 0 126 0;
#X connect 125 1 193 46;
#X connect 127 0 130 0;
#X connect 128 0 134 0;
#X connect 129 0 132 0;
#X connect 130 0 131 0;
#X connect 130 1 193 48;
#X connect 132 0 133 0;
#X connect 132 1 193 50;
#X connect 134 0 135 0;
#X connect 134 1 193 49;
#X connect 136 0 139 0;
#X connect 137 0 143 0;
#X connect 138 0 141 0;
#X connect 139 0 140 0;
#X connect 139 1 193 51;
#X connect 141 0 142 0;
#X connect 141 1 193 53;
#X connect 143 0 144 0;
#X connect 143 1 193 52;
#X connect 145 0 148 0;
#X connect 146 0 152 0;
#X connect 147 0 150 0;
#X connect 148 0 149 0;
#X connect 148 1 193 54;
#X connect 150 0 151 0;
#X connect 150 1 193 56;
#X connect 152 0 153 0;
#X connect 152 1 193 55;
#X connect 154 0 157 0;
#X connect 155 0 161 0;
#X connect 156 0 159 0;
#X connect 157 0 158 0;
#X connect 157 1 193 57;
#X connect 159 0 160 0;
#X connect 159 1 193 59;
#X connect 161 0 162 0;
#X connect 161 1 193 58;
#X connect 163 0 166 0;
#X connect 164 0 170 0;
#X connect 165 0 168 0;
#X connect 166 0 167 0;
#X connect 166 1 193 60;
#X connect 168 0 169 0;
#X connect 168 1 193 62;
#X connect 170 0 171 0;
#X connect 170 1 193 61;
#X connect 172 0 174 0;
#X connect 173 0 256 0;
#X connect 174 0 175 0;
#X connect 174 1 193 5;
#X connect 176 0 177 0;
#X connect 176 1 193 6;
#X connect 178 0 182 0;
#X connect 178 0 186 0;
#X connect 179 0 187 0;
#X connect 180 0 179 0;
#X connect 182 0 181 0;
#X connect 183 0 182 1;
#X connect 185 0 184 1;
#X connect 186 0 184 0;
#X connect 186 1 185 0;
#X connect 187 0 178 0;
#X connect 187 0 189 0;
#X connect 188 0 178 0;
#X connect 189 1 190 0;
#X connect 190 0 191 0;
#X connect 191 0 188 0;
#X connect 192 0 179 1;
#X connect 193 0 192 0;
#X connect 193 0 253 0;
#X connect 194 0 172 0;
#X connect 195 0 257 0;
#X connect 196 0 51 0;
#X connect 197 0 52 0;
#X connect 198 0 53 0;
#X connect 199 0 54 0;
#X connect 200 0 63 0;
#X connect 201 0 64 0;
#X connect 202 0 65 0;
#X connect 203 0 66 0;
#X connect 204 0 75 0;
#X connect 205 0 76 0;
#X connect 206 0 77 0;
#X connect 207 0 78 0;
#X connect 208 0 87 0;
#X connect 209 0 88 0;
#X connect 210 0 89 0;
#X connect 211 0 90 0;
#X connect 212 0 3 0;
#X connect 213 0 4 0;
#X connect 214 0 5 0;
#X connect 215 0 6 0;
#X connect 216 0 15 0;
#X connect 217 0 16 0;
#X connect 218 0 17 0;
#X connect 219 0 18 0;
#X connect 220 0 27 0;
#X connect 221 0 28 0;
#X connect 222 0 29 0;
#X connect 223 0 30 0;
#X connect 224 0 39 0;
#X connect 225 0 40 0;
#X connect 226 0 41 0;
#X connect 227 0 42 0;
#X connect 228 0 100 0;
#X connect 229 0 101 0;
#X connect 230 0 102 0;
#X connect 231 0 109 0;
#X connect 232 0 110 0;
#X connect 233 0 111 0;
#X connect 234 0 118 0;
#X connect 235 0 119 0;
#X connect 236 0 120 0;
#X connect 237 0 127 0;
#X connect 238 0 128 0;
#X connect 239 0 129 0;
#X connect 240 0 136 0;
#X connect 241 0 137 0;
#X connect 242 0 138 0;
#X connect 243 0 145 0;
#X connect 244 0 146 0;
#X connect 245 0 147 0;
#X connect 246 0 154 0;
#X connect 247 0 155 0;
#X connect 248 0 156 0;
#X connect 249 0 163 0;
#X connect 250 0 164 0;
#X connect 251 0 165 0;
#X connect 256 0 176 0;
#X connect 257 0 173 0;
#X connect 259 0 178 0;
#X connect 262 0 263 0;
#X connect 263 0 259 0;
#X connect 263 1 261 0;
#X connect 269 0 270 0;
#X connect 270 0 262 0;
#X coords 0 -1 1 1 1205 212 2 21 102;
#X restore 0 5 pd CORE;
#X text 984 219 version 0.2 - mario buoninfante;
